<svg xmlns="http://www.w3.org/2000/svg" width="1699.983" height="286.967" viewBox="0 0 1699.983 286.967">
  <g id="Group_1" data-name="Group 1" transform="translate(-110 -374)">
    <path id="Path_3" data-name="Path 3" d="M110,374V660.967H701.983L324.55,374Z" transform="translate(81)" fill="#024a56"/>
    <path id="Path_7" data-name="Path 7" d="M-20,374V660.967H701.983L324.55,374Z" transform="translate(840.983)" fill="#e6df91"/>
    <path id="Path_10" data-name="Path 10" d="M701.983,374V660.967H-20L297.433,374Z" transform="translate(1108)" fill="#ed0037"/>
    <path id="Path_9" data-name="Path 9" d="M-20,374V660.967H701.983L324.55,374Z" transform="translate(1099)" fill="#ff5640"/>
    <path id="Path_8" data-name="Path 8" d="M-20,374V660.967H701.983L324.55,374Z" transform="translate(910)" fill="#ff8349"/>
    <path id="Path_6" data-name="Path 6" d="M-20,374V660.967H701.983L324.55,374Z" transform="translate(682.009)" fill="#eae19e"/>
    <path id="Path_5" data-name="Path 5" d="M-20,374V660.967H701.983L324.55,374Z" transform="translate(486.991)" fill="#02716a"/>
    <path id="Path_4" data-name="Path 4" d="M-20,374V660.967H701.983L324.55,374Z" transform="translate(289)" fill="#00796e"/>
    <path id="Path_2" data-name="Path 2" d="M110,374V660.967H701.983L324.55,374Z" fill="#02505a"/>
    <path id="Path_1" data-name="Path 1" d="M110,475.4,316.091,660.883H110Z" fill="#01313f"/>
  </g>
</svg>
