<svg xmlns="http://www.w3.org/2000/svg" width="383.11" height="110.288" viewBox="0 0 383.11 110.288">
  <g id="Group_12" data-name="Group 12" transform="translate(-69.771 -600)">
    <g id="Group_1" data-name="Group 1" transform="translate(-754.774 69.042)">
      <rect id="Rectangle_4" data-name="Rectangle 4" width="31.194" height="31.194" transform="translate(868.659 553.016) rotate(45)" fill="#fff" opacity="0.6"/>
      <path id="Rectangle_11" data-name="Rectangle 11" d="M0,0H31.194V31.194H4a4,4,0,0,1-4-4Z" transform="translate(846.602 575.073) rotate(45)" fill="#fff" opacity="0.8"/>
      <rect id="Rectangle_7" data-name="Rectangle 7" width="31.194" height="31.194" transform="translate(912.774 553.016) rotate(45)" fill="#fff" opacity="0.6"/>
      <rect id="Rectangle_9" data-name="Rectangle 9" width="31.194" height="31.194" transform="translate(890.716 575.073) rotate(45)" fill="#fff" opacity="0.8"/>
      <path id="Rectangle_13" data-name="Rectangle 13" d="M0,0H31.194V27.194a4,4,0,0,1-4,4H0Z" transform="translate(912.774 597.131) rotate(45)" fill="#fff"/>
      <path id="Rectangle_14" data-name="Rectangle 14" d="M0,0H31.194V27.194a4,4,0,0,1-4,4H0Z" transform="translate(868.659 597.131) rotate(45)" fill="#fff"/>
      <path id="Rectangle_15" data-name="Rectangle 15" d="M0,0H31.194V27.194a4,4,0,0,1-4,4H0Z" transform="translate(956.889 597.131) rotate(45)" fill="#fff"/>
      <rect id="Rectangle_10" data-name="Rectangle 10" width="31.194" height="31.194" transform="translate(934.831 575.073) rotate(45)" fill="#fff" opacity="0.8"/>
      <path id="Rectangle_12" data-name="Rectangle 12" d="M0,0H27.194a4,4,0,0,1,4,4V31.194H0Z" transform="translate(978.946 575.073) rotate(45)" fill="#fff" opacity="0.8"/>
      <rect id="Rectangle_8" data-name="Rectangle 8" width="31.194" height="31.194" transform="translate(956.889 553.016) rotate(45)" fill="#fff" opacity="0.6"/>
      <path id="Rectangle_5" data-name="Rectangle 5" d="M3,0H31.194V31.194H0V3A3,3,0,0,1,3,0Z" transform="translate(890.716 530.958) rotate(45)" fill="#fff" opacity="0.4"/>
      <path id="Rectangle_6" data-name="Rectangle 6" d="M3,0H31.194V31.194H0V3A3,3,0,0,1,3,0Z" transform="translate(934.831 530.958) rotate(45)" fill="#fff" opacity="0.4"/>
    </g>
    <path id="Path_19" data-name="Path 19" d="M-66.36-49v26.6L-85.26-49h-8.4V0h11.2V-26.6L-63.56,0h8.4V-49Zm28.63,35.7h24.85a20.348,20.348,0,0,0,.42-4.2c0-10.57-7.56-18.48-17.78-18.48-11.06,0-18.62,8.05-18.62,18.48S-41.44.98-29.47.98c6.65,0,11.83-2.45,15.26-7.21l-8.4-4.83A9.139,9.139,0,0,1-29.33-8.4C-33.18-8.4-36.4-9.66-37.73-13.3Zm-.21-7.84c.98-3.57,3.64-5.53,7.63-5.53a7.206,7.206,0,0,1,7.42,5.53ZM24.64,0,12.11-17.78,24.22-35H12.18L6.09-26.32,0-35H-12.04L.07-17.78-12.46,0H-.42L6.09-9.24,12.6,0ZM51.1-35v19.11c0,4.97-2.66,7.21-6.51,7.21-3.36,0-6.09-2.03-6.09-6.37V-35H28v21.49C28-4.06,34.02.98,41.09.98,45.71.98,49.21-.7,51.1-3.29V0H61.6V-35ZM78.89-24.78c0-1.26,1.12-1.96,2.94-1.96a5.083,5.083,0,0,1,4.69,3.08l8.96-4.83a15.314,15.314,0,0,0-13.65-7.49c-7.28,0-13.72,3.85-13.72,11.48,0,12.11,17.22,10.08,17.22,13.93,0,1.4-1.26,2.17-3.78,2.17a5.748,5.748,0,0,1-5.95-4.13L66.5-7.35C69.23-1.68,74.55.98,81.55.98c7.56,0,14.56-3.43,14.56-11.48C96.11-23.45,78.89-20.79,78.89-24.78Z" transform="translate(356.771 691)" fill="#fff"/>
  </g>
</svg>
